<?xml version="1.0" standalone="no"?><!DOCTYPE svg PUBLIC "-//W3C//DTD SVG 1.1//EN" "http://www.w3.org/Graphics/SVG/1.1/DTD/svg11.dtd"><svg t="1590826034421" class="icon" viewBox="0 0 1024 1024" version="1.1" xmlns="http://www.w3.org/2000/svg" p-id="851" xmlns:xlink="http://www.w3.org/1999/xlink" width="200" height="200"><defs><style type="text/css">
</style></defs><path d="M698.181818 477.090909a35.141818 35.141818 0 0 1 24.669091 10.24 34.676364 34.676364 0 0 1 0 49.338182l-372.36363599 372.363636a34.909091 34.909091 0 0 1-49.33818201-49.338182l372.363636-372.363636a35.141818 35.141818 0 0 1 24.669091-10.24z" p-id="852"></path><path d="M325.81818199 104.727273a35.141818 35.141818 0 0 1 24.66909102 10.24l372.36363599 372.363636a34.909091 34.909091 0 0 1-49.338182 49.338182l-372.363636-372.363636a34.676364 34.676364 0 0 1 0-49.338182 35.141818 35.141818 0 0 1 24.66909099-10.24z" p-id="853"></path></svg>